<?xml version="1.0" encoding="UTF-8"?>
<!DOCTYPE svg PUBLIC "-//W3C//DTD SVG 1.1//EN" "http://www.w3.org/Graphics/SVG/1.1/DTD/svg11.dtd">
<svg xmlns="http://www.w3.org/2000/svg" version="1.1" width="1000px" height="1000px" style="shape-rendering:geometricPrecision; text-rendering:geometricPrecision; image-rendering:optimizeQuality; fill-rule:evenodd; clip-rule:evenodd" xmlns:xlink="http://www.w3.org/1999/xlink">
<g><path style="opacity:0.997" fill="#242424" d="M 468.5,5.5 C 623.503,-0.582097 754.669,51.7512 862,162.5C 965.973,278.78 1008.31,414.78 989,570.5C 962.596,727.787 881.429,847.287 745.5,929C 629.357,993.019 506.691,1009.69 377.5,979C 243.264,942.516 140.764,864.683 70,745.5C 6.65512,630.751 -10.3449,509.418 19,381.5C 59.8643,229.319 151.031,118.819 292.5,50C 348.593,24.5535 407.259,9.72014 468.5,5.5 Z"/></g>
<g><path style="opacity:1" fill="#efefef" d="M 185.5,278.5 C 190.08,278.113 194.414,278.947 198.5,281C 221.003,297.092 244.669,311.426 269.5,324C 282.248,330.028 295.582,334.028 309.5,336C 319.853,336.518 330.186,336.184 340.5,335C 357.339,330.957 374.006,326.29 390.5,321C 406.299,316.981 422.299,313.981 438.5,312C 450.833,311.333 463.167,311.333 475.5,312C 480.021,312.729 484.354,314.063 488.5,316C 490.255,316.72 491.089,317.887 491,319.5C 455.636,353.865 419.97,387.865 384,421.5C 373.418,438.457 374.418,454.791 387,470.5C 410.244,498.554 438.744,505.387 472.5,491C 497.645,478.844 520.312,463.177 540.5,444C 556.557,433.018 572.89,432.685 589.5,443C 629.333,482.833 669.167,522.667 709,562.5C 722.507,581.905 721.34,600.405 705.5,618C 691.357,628.663 676.357,630.163 660.5,622.5C 660.854,653.313 645.521,668.813 614.5,669C 607.941,667.637 602.108,664.804 597,660.5C 596.275,691.56 580.442,706.394 549.5,705C 545.737,704.08 542.237,702.58 539,700.5C 533.933,728.896 517.099,741.063 488.5,737C 486.385,736.443 484.385,735.609 482.5,734.5C 481.479,733.998 481.312,733.332 482,732.5C 495.667,718.833 509.333,705.167 523,691.5C 534.388,678.032 537.721,662.699 533,645.5C 522.023,620.101 502.856,610.101 475.5,615.5C 469.918,584.076 451.251,569.242 419.5,571C 417.129,571.735 414.795,572.568 412.5,573.5C 404.292,542.947 384.625,530.281 353.5,535.5C 348.792,500.302 328.792,485.135 293.5,490C 288.194,492.101 283.194,494.768 278.5,498C 262.986,513.681 247.319,529.181 231.5,544.5C 190.756,514.045 149.923,483.711 109,453.5C 105.336,448.523 104.67,443.189 107,437.5C 131.895,386.378 156.229,335.045 180,283.5C 181.812,281.7 183.645,280.033 185.5,278.5 Z"/></g>
<g><path style="opacity:1" fill="#efefef" d="M 805.5,278.5 C 812.796,277.565 818.296,280.232 822,286.5C 844.894,337.175 868.561,387.508 893,437.5C 894.745,444.564 893.245,450.731 888.5,456C 839.905,490.46 792.238,526.127 745.5,563C 741.375,563.854 737.375,563.52 733.5,562C 691.806,520.639 650.472,478.972 609.5,437C 591.261,419.107 569.928,413.774 545.5,421C 542.167,422.667 538.833,424.333 535.5,426C 516.679,440.576 497.679,454.91 478.5,469C 461.845,478.094 444.179,480.761 425.5,477C 409.791,469.791 400.791,457.625 398.5,440.5C 398.244,436.877 399.077,433.544 401,430.5C 442.532,391.299 484.366,352.466 526.5,314C 529.887,310.947 533.553,308.28 537.5,306C 549.537,303.91 561.537,304.244 573.5,307C 586.056,311.074 598.389,315.741 610.5,321C 628.64,327.696 647.307,332.362 666.5,335C 682.129,336.637 697.462,335.303 712.5,331C 736.126,321.688 758.459,310.022 779.5,296C 788.071,289.912 796.738,284.079 805.5,278.5 Z"/></g>
<g><path style="opacity:1" fill="#ededed" d="M 300.5,506.5 C 324.122,505.623 335.622,516.956 335,540.5C 332.959,546.914 329.626,552.581 325,557.5C 308.138,574.696 290.972,591.529 273.5,608C 258.539,616.941 245.373,614.775 234,601.5C 227.125,591.009 226.791,580.343 233,569.5C 251.471,550.028 270.305,530.862 289.5,512C 292.99,509.588 296.657,507.755 300.5,506.5 Z"/></g>
<g><path style="opacity:1" fill="#eeeeee" d="M 358.5,551.5 C 379.332,549.391 391.332,558.557 394.5,579C 394.429,584.88 392.929,590.38 390,595.5C 371.167,615.667 351.667,635.167 331.5,654C 313.47,662.546 299.637,658.046 290,640.5C 286.422,628.961 288.422,618.628 296,609.5C 313.167,592.333 330.333,575.167 347.5,558C 351.262,555.794 354.929,553.627 358.5,551.5 Z"/></g>
<g><path style="opacity:1" fill="#eeeeee" d="M 420.5,588.5 C 441.409,586.262 453.409,595.429 456.5,616C 456.429,621.88 454.929,627.38 452,632.5C 433.5,652.333 414.333,671.5 394.5,690C 378.533,698.338 365.033,695.505 354,681.5C 349.374,671.473 349.374,661.473 354,651.5C 372.471,632.028 391.305,612.862 410.5,594C 413.767,591.87 417.1,590.037 420.5,588.5 Z"/></g>
<g><path style="opacity:1" fill="#ededed" d="M 482.5,631.5 C 506.653,630.819 518.153,642.486 517,666.5C 515.48,669.382 514.147,672.382 513,675.5C 494.167,695.667 474.667,715.167 454.5,734C 433.963,742.977 419.463,737.144 411,716.5C 409.501,708.627 410.834,701.294 415,694.5C 433.138,675.362 451.638,656.528 470.5,638C 474.207,635.087 478.207,632.921 482.5,631.5 Z"/></g>
</svg>
