<?xml version="1.0" encoding="UTF-8"?>
<!DOCTYPE svg PUBLIC "-//W3C//DTD SVG 1.1//EN" "http://www.w3.org/Graphics/SVG/1.1/DTD/svg11.dtd">
<svg xmlns="http://www.w3.org/2000/svg" version="1.1" width="1000px" height="1000px" style="shape-rendering:geometricPrecision; text-rendering:geometricPrecision; image-rendering:optimizeQuality; fill-rule:evenodd; clip-rule:evenodd" xmlns:xlink="http://www.w3.org/1999/xlink">
<g><path style="opacity:0.997" fill="#242424" d="M 468.5,5.5 C 623.503,-0.582097 754.669,51.7512 862,162.5C 965.973,278.78 1008.31,414.78 989,570.5C 962.596,727.787 881.429,847.287 745.5,929C 629.357,993.019 506.691,1009.69 377.5,979C 243.264,942.516 140.764,864.683 70,745.5C 6.65512,630.751 -10.3449,509.418 19,381.5C 59.8643,229.319 151.031,118.819 292.5,50C 348.593,24.5535 407.259,9.72014 468.5,5.5 Z"/></g>
<g><path style="opacity:1" fill="#eeeeee" d="M 527.5,589.5 C 523.511,589.116 519.845,589.783 516.5,591.5C 509.166,592.496 502.166,594.662 495.5,598C 487.881,603.284 480.548,608.951 473.5,615C 460.778,622.072 447.445,623.405 433.5,619C 418.954,615.82 405.288,610.487 392.5,603C 389.667,600.167 386.833,597.333 384,594.5C 379.05,583.658 373.717,572.992 368,562.5C 357.492,548.014 343.992,537.514 327.5,531C 317.854,528.892 308.188,526.892 298.5,525C 285.587,520.089 275.754,511.589 269,499.5C 260.143,485.74 256.477,470.74 258,454.5C 261.204,442.555 264.204,430.555 267,418.5C 268.563,404.519 267.229,390.853 263,377.5C 259.011,368.18 254.011,359.513 248,351.5C 235.949,327.674 236.949,304.341 251,281.5C 253.5,278.333 256.333,275.5 259.5,273C 291.641,259.526 314.474,236.692 328,204.5C 331.466,194.302 334.466,183.969 337,173.5C 342.394,162.106 350.56,153.273 361.5,147C 372.066,139.59 383.733,136.924 396.5,139C 408.745,142.416 421.078,145.416 433.5,148C 449.226,149.067 464.56,147.067 479.5,142C 491.785,136.191 503.785,129.858 515.5,123C 540.591,116.085 563.424,120.585 584,136.5C 586.333,139.5 588.667,142.5 591,145.5C 598.154,160.984 607.654,174.818 619.5,187C 637.013,200.506 656.68,209.173 678.5,213C 702.782,222.824 715.782,240.991 717.5,267.5C 715.529,280.856 713.363,294.189 711,307.5C 706.464,337.364 713.464,364.031 732,387.5C 738.769,397.912 741.103,409.245 739,421.5C 736.64,436.929 730.973,450.929 722,463.5C 719.407,465.549 716.907,467.715 714.5,470C 704.673,475.08 695.006,480.413 685.5,486C 672.78,495.289 663.28,507.122 657,521.5C 653.211,535.577 649.211,549.577 645,563.5C 633.529,581.004 617.695,592.838 597.5,599C 590.151,600.892 582.817,600.892 575.5,599C 567.637,595.934 559.637,593.268 551.5,591C 543.553,589.725 535.553,589.225 527.5,589.5 Z"/></g>
<g><path style="opacity:1" fill="#9b9b9b" d="M 499.5,185.5 C 488.815,185.39 478.148,185.723 467.5,186.5C 473.769,185.02 480.269,184.353 487,184.5C 491.347,184.501 495.514,184.834 499.5,185.5 Z"/></g>
<g><path style="opacity:1" fill="#252525" d="M 499.5,185.5 C 571.353,192.248 623.519,227.582 656,291.5C 679.924,348.608 677.59,404.608 649,459.5C 619.907,508.312 577.407,538.312 521.5,549.5C 517.64,549.808 513.974,550.475 510.5,551.5C 447.248,557.253 394.081,536.92 351,490.5C 309.587,439.792 296.587,382.458 312,318.5C 331.297,258.871 370.13,217.704 428.5,195C 441.143,190.571 454.143,187.738 467.5,186.5C 478.148,185.723 488.815,185.39 499.5,185.5 Z"/></g>
<g><path style="opacity:1" fill="#efefef" d="M 329.5,357.5 C 330.889,352.731 331.556,347.731 331.5,342.5C 342.85,285.653 374.85,245.153 427.5,221C 478.084,202.206 526.751,206.206 573.5,233C 633.522,274.341 657.355,331.175 645,403.5C 625.238,474.927 578.738,516.427 505.5,528C 434.997,531.748 382.163,503.248 347,442.5C 333.72,415.706 327.886,387.373 329.5,357.5 Z"/></g>
<g><path style="opacity:1" fill="#252525" d="M 572.5,284.5 C 583.614,294.779 594.114,305.446 604,316.5C 558.833,361.667 513.667,406.833 468.5,452C 467.5,452.667 466.5,452.667 465.5,452C 441.333,427.833 417.167,403.667 393,379.5C 392.333,378.833 392.333,378.167 393,377.5C 403.014,367.319 413.181,357.319 423.5,347.5C 437.859,362.026 452.359,376.36 467,390.5C 502.346,355.32 537.513,319.987 572.5,284.5 Z"/></g>
<g><path style="opacity:1" fill="#aaaaaa" d="M 331.5,342.5 C 331.556,347.731 330.889,352.731 329.5,357.5C 329.444,352.269 330.111,347.269 331.5,342.5 Z"/></g>
<g><path style="opacity:1" fill="#a7a7a7" d="M 521.5,549.5 C 518.155,551.217 514.489,551.884 510.5,551.5C 513.974,550.475 517.64,549.808 521.5,549.5 Z"/></g>
<g><path style="opacity:1" fill="#5d5d5d" d="M 527.5,589.5 C 524.026,590.525 520.36,591.192 516.5,591.5C 519.845,589.783 523.511,589.116 527.5,589.5 Z"/></g>
<g><path style="opacity:1" fill="#eeeeee" d="M 694.5,613.5 C 696.888,614.219 698.388,615.885 699,618.5C 725.638,680.275 752.138,742.109 778.5,804C 778.167,804.5 777.833,805 777.5,805.5C 737.227,787.03 697.227,768.03 657.5,748.5C 644.211,791.771 630.878,835.104 617.5,878.5C 588.836,812.843 560.169,747.176 531.5,681.5C 592.246,673.602 646.58,650.935 694.5,613.5 Z"/></g>
<g><path style="opacity:1" fill="#efefef" d="M 302.5,621.5 C 350.306,658.779 404.639,679.779 465.5,684.5C 438.16,749.515 409.993,814.182 381,878.5C 367.512,835.189 354.345,791.856 341.5,748.5C 300.722,768.234 260.056,787.234 219.5,805.5C 247.173,744.137 274.84,682.804 302.5,621.5 Z"/></g>
</svg>
