<?xml version="1.0" encoding="UTF-8"?>
<!DOCTYPE svg PUBLIC "-//W3C//DTD SVG 1.1//EN" "http://www.w3.org/Graphics/SVG/1.1/DTD/svg11.dtd">
<svg xmlns="http://www.w3.org/2000/svg" version="1.1" width="1000px" height="1000px" style="shape-rendering:geometricPrecision; text-rendering:geometricPrecision; image-rendering:optimizeQuality; fill-rule:evenodd; clip-rule:evenodd" xmlns:xlink="http://www.w3.org/1999/xlink">
<g><path style="opacity:0.997" fill="#242424" d="M 468.5,5.5 C 623.503,-0.582097 754.669,51.7512 862,162.5C 965.973,278.78 1008.31,414.78 989,570.5C 962.596,727.787 881.429,847.287 745.5,929C 629.357,993.019 506.691,1009.69 377.5,979C 243.264,942.516 140.764,864.683 70,745.5C 6.65512,630.751 -10.3449,509.418 19,381.5C 59.8643,229.319 151.031,118.819 292.5,50C 348.593,24.5535 407.259,9.72014 468.5,5.5 Z"/></g>
<g><path style="opacity:1" fill="#efefef" d="M 731.5,321.5 C 577.833,322.833 424.167,322.833 270.5,321.5C 320.401,295.633 370.234,269.633 420,243.5C 447,257.5 474,271.5 501,285.5C 528,271.5 555,257.5 582,243.5C 631.766,269.633 681.599,295.633 731.5,321.5 Z"/></g>
<g><path style="opacity:1" fill="#686868" d="M 270.5,321.5 C 424.167,322.833 577.833,322.833 731.5,321.5C 732.289,321.783 732.956,322.283 733.5,323C 578.5,323.667 423.5,323.667 268.5,323C 269.044,322.283 269.711,321.783 270.5,321.5 Z"/></g>
<g><path style="opacity:1" fill="#d4d4d4" d="M 895.5,362.5 C 631.833,361.167 368.167,361.167 104.5,362.5C 103.957,362.44 103.624,362.107 103.5,361.5C 367.833,360.167 632.167,360.167 896.5,361.5C 896.376,362.107 896.043,362.44 895.5,362.5 Z"/></g>
<g><path style="opacity:1" fill="#efefef" d="M 895.5,362.5 C 876.317,403.034 856.983,443.534 837.5,484C 857.571,522.809 877.904,561.476 898.5,600C 884.821,600.833 871.154,600.666 857.5,599.5C 845.089,573.679 832.423,548.012 819.5,522.5C 806.433,548.134 793.767,573.967 781.5,600C 594.499,600.833 407.499,600.667 220.5,599.5C 207.861,572.888 194.694,546.555 181,520.5C 168.333,546.5 155.667,572.5 143,598.5C 129.262,600.176 115.428,600.676 101.5,600C 122.489,561.19 142.822,522.023 162.5,482.5C 143.156,442.479 123.822,402.479 104.5,362.5C 368.167,361.167 631.833,361.167 895.5,362.5 Z"/></g>
<g><path style="opacity:1" fill="#efefef" d="M 104.5,639.5 C 368.833,639.5 633.167,639.5 897.5,639.5C 897.5,652.167 897.5,664.833 897.5,677.5C 884.5,677.5 871.5,677.5 858.5,677.5C 858.91,694.542 858.41,711.542 857,728.5C 850.439,746.718 837.439,756.052 818,756.5C 795.352,753.351 783.185,740.351 781.5,717.5C 753.833,717.5 726.167,717.5 698.5,717.5C 695.316,745.439 679.65,758.273 651.5,756C 637.071,751.904 627.571,742.737 623,728.5C 621.558,711.556 621.058,694.556 621.5,677.5C 541.167,677.5 460.833,677.5 380.5,677.5C 380.91,694.542 380.41,711.542 379,728.5C 370.451,751.012 354.285,759.845 330.5,755C 312.744,748.326 303.744,735.493 303.5,716.5C 275.833,716.5 248.167,716.5 220.5,716.5C 217.828,744.999 202.161,758.165 173.5,756C 157.901,751.401 148.067,741.234 144,725.5C 143.5,709.503 143.333,693.503 143.5,677.5C 130.5,677.5 117.5,677.5 104.5,677.5C 104.5,664.833 104.5,652.167 104.5,639.5 Z"/></g>
</svg>
