<?xml version="1.0" encoding="UTF-8"?>
<!DOCTYPE svg PUBLIC "-//W3C//DTD SVG 1.1//EN" "http://www.w3.org/Graphics/SVG/1.1/DTD/svg11.dtd">
<svg xmlns="http://www.w3.org/2000/svg" version="1.1" width="2000px" height="1370px" style="shape-rendering:geometricPrecision; text-rendering:geometricPrecision; image-rendering:optimizeQuality; fill-rule:evenodd; clip-rule:evenodd" xmlns:xlink="http://www.w3.org/1999/xlink">
<g><path style="opacity:0.741" fill="#000002" d="M 434.5,1144.5 C 491.167,1144.5 547.833,1144.5 604.5,1144.5C 604.5,779.5 604.5,414.5 604.5,49.5C 486.665,49.8329 368.999,49.4995 251.5,48.5C 254.279,42.5625 258.946,39.0625 265.5,38C 388.5,37.3333 511.5,37.3333 634.5,38C 642.893,39.3933 648.06,44.2266 650,52.5C 650.667,418.833 650.667,785.167 650,1151.5C 648.167,1158.67 643.667,1163.17 636.5,1165C 574.167,1165.67 511.833,1165.67 449.5,1165C 439.399,1162.05 434.399,1155.21 434.5,1144.5 Z"/></g>
<g><path style="opacity:0.739" fill="#010103" d="M 1104.5,414.5 C 1160.83,414.5 1217.17,414.5 1273.5,414.5C 1273.67,347.499 1273.5,280.499 1273,213.5C 1267.96,167.258 1248.46,128.424 1214.5,97C 1184.85,69.6806 1149.85,54.0139 1109.5,50C 1035.5,49.3333 961.5,49.3333 887.5,50C 879.031,50.8558 870.697,52.3558 862.5,54.5C 861.833,54.5 861.167,54.5 860.5,54.5C 883.228,43.987 907.228,38.487 932.5,38C 997.5,37.3333 1062.5,37.3333 1127.5,38C 1201.43,42.9903 1257.26,77.157 1295,140.5C 1308.03,164.591 1316.03,190.258 1319,217.5C 1319.67,285.5 1319.67,353.5 1319,421.5C 1317.17,428.667 1312.67,433.167 1305.5,435C 1243.17,435.667 1180.83,435.667 1118.5,435C 1108.52,431.88 1103.85,425.047 1104.5,414.5 Z"/></g>
<g><path style="opacity:0.735" fill="#000002" d="M 1624.5,440.5 C 1609.81,490.585 1594.81,540.585 1579.5,590.5C 1578.83,410.167 1578.17,229.833 1577.5,49.5C 1521.66,49.8323 1466,49.499 1410.5,48.5C 1413.28,42.5625 1417.95,39.0625 1424.5,38C 1485.83,37.3333 1547.17,37.3333 1608.5,38C 1617,39.8333 1622.17,45 1624,53.5C 1624.5,182.5 1624.67,311.5 1624.5,440.5 Z"/></g>
<g><path style="opacity:0.743" fill="#000002" d="M 70.5,1314.5 C 694.5,1314.5 1318.5,1314.5 1942.5,1314.5C 1942.67,1257.17 1942.5,1199.83 1942,1142.5C 1870.54,1001.91 1799.37,861.239 1728.5,720.5C 1799.82,496.875 1871.15,273.209 1942.5,49.5C 1882,49.8324 1821.66,49.4991 1761.5,48.5C 1764.25,42.5953 1768.92,39.0953 1775.5,38C 1841.5,37.3333 1907.5,37.3333 1973.5,38C 1982.37,40.0394 1987.71,45.5394 1989.5,54.5C 1918.13,278.114 1846.46,501.614 1774.5,725C 1846.96,865.928 1918.63,1007.26 1989.5,1149C 1988.67,1206.43 1988.17,1263.93 1988,1321.5C 1986.17,1328.67 1981.67,1333.17 1974.5,1335C 1344.5,1335.67 714.5,1335.67 84.5,1335C 74.152,1332.14 69.4853,1325.3 70.5,1314.5 Z"/></g>
<g><path style="opacity:0.998" fill="#efefef" d="M 251.5,48.5 C 368.999,49.4995 486.665,49.8329 604.5,49.5C 604.5,414.5 604.5,779.5 604.5,1144.5C 547.833,1144.5 491.167,1144.5 434.5,1144.5C 429.833,1144.5 425.167,1144.5 420.5,1144.5C 420.5,882.833 420.5,621.167 420.5,359.5C 420.5,357.5 420.5,355.5 420.5,353.5C 421.499,313.003 421.832,272.337 421.5,231.5C 412.318,231.173 403.318,231.507 394.5,232.5C 343.591,533.956 293.091,835.623 243,1137.5C 241.592,1156.8 241.092,1176.13 241.5,1195.5C 737.167,1195.5 1232.83,1195.5 1728.5,1195.5C 1728.5,1191.83 1728.5,1188.17 1728.5,1184.5C 1728.95,1170.09 1728.45,1155.76 1727,1141.5C 1693.06,1059.3 1658.89,977.296 1624.5,895.5C 1609.78,858.393 1594.78,821.393 1579.5,784.5C 1579.01,783.527 1578.51,782.527 1578,781.5C 1577.5,902.5 1577.33,1023.5 1577.5,1144.5C 1521.17,1144.5 1464.83,1144.5 1408.5,1144.5C 1403.83,1144.5 1399.17,1144.5 1394.5,1144.5C 1394.5,779.167 1394.5,413.833 1394.5,48.5C 1399.83,48.5 1405.17,48.5 1410.5,48.5C 1466,49.499 1521.66,49.8323 1577.5,49.5C 1577.33,231.167 1577.5,412.834 1578,594.5C 1578.41,593.099 1578.91,591.766 1579.5,590.5C 1594.81,540.585 1609.81,490.585 1624.5,440.5C 1664.93,310.704 1705.1,180.704 1745,50.5C 1750.2,48.5798 1755.7,47.9132 1761.5,48.5C 1821.66,49.4991 1882,49.8324 1942.5,49.5C 1871.15,273.209 1799.82,496.875 1728.5,720.5C 1799.37,861.239 1870.54,1001.91 1942,1142.5C 1942.5,1199.83 1942.67,1257.17 1942.5,1314.5C 1318.5,1314.5 694.5,1314.5 70.5,1314.5C 65.8333,1314.5 61.1667,1314.5 56.5,1314.5C 56.831,1257.6 56.4976,1200.76 55.5,1144C 115.765,778.911 175.765,413.744 235.5,48.5C 240.833,48.5 246.167,48.5 251.5,48.5 Z"/></g>
<g><path style="opacity:0.999" fill="#efefef" d="M 1104.5,414.5 C 1099.83,414.5 1095.17,414.5 1090.5,414.5C 1090.5,360.833 1090.5,307.167 1090.5,253.5C 1090.5,246.5 1090.5,239.5 1090.5,232.5C 1029.83,232.5 969.167,232.5 908.5,232.5C 908.5,475.5 908.5,718.5 908.5,961.5C 969.167,961.5 1029.83,961.5 1090.5,961.5C 1090.5,957.833 1090.5,954.167 1090.5,950.5C 1090.5,893.167 1090.5,835.833 1090.5,778.5C 1095.83,778.5 1101.17,778.5 1106.5,778.5C 1162,779.499 1217.66,779.832 1273.5,779.5C 1273.67,846.501 1273.5,913.501 1273,980.5C 1265.41,1042.05 1235.25,1088.88 1182.5,1121C 1159.52,1134.11 1134.85,1141.77 1108.5,1144C 1035.17,1144.67 961.833,1144.67 888.5,1144C 859.133,1140.94 832.133,1131.44 807.5,1115.5C 806.415,1113.41 804.749,1112.08 802.5,1111.5C 757.461,1079.45 731.961,1035.78 726,980.5C 725.333,724.833 725.333,469.167 726,213.5C 735.121,145.396 770.288,95.8959 831.5,65C 839.21,61.3096 847.21,58.4763 855.5,56.5C 858.152,56.5905 860.485,55.9238 862.5,54.5C 870.697,52.3558 879.031,50.8558 887.5,50C 961.5,49.3333 1035.5,49.3333 1109.5,50C 1149.85,54.0139 1184.85,69.6806 1214.5,97C 1248.46,128.424 1267.96,167.258 1273,213.5C 1273.5,280.499 1273.67,347.499 1273.5,414.5C 1217.17,414.5 1160.83,414.5 1104.5,414.5 Z"/></g>
<g><path style="opacity:0.812" fill="#4a4a4c" d="M 1577.5,49.5 C 1578.17,229.833 1578.83,410.167 1579.5,590.5C 1578.91,591.766 1578.41,593.099 1578,594.5C 1577.5,412.834 1577.33,231.167 1577.5,49.5 Z"/></g>
<g><path style="opacity:0.969" fill="#858586" d="M 860.5,54.5 C 861.167,54.5 861.833,54.5 862.5,54.5C 860.485,55.9238 858.152,56.5905 855.5,56.5C 856.78,55.0687 858.447,54.4021 860.5,54.5 Z"/></g>
<g><path style="opacity:0.745" fill="#010103" d="M 394.5,232.5 C 403.167,232.5 411.833,232.5 420.5,232.5C 420.5,272.833 420.5,313.167 420.5,353.5C 420.5,355.5 420.5,357.5 420.5,359.5C 376.14,622.994 331.973,886.661 288,1150.5C 287.5,1161.83 287.333,1173.16 287.5,1184.5C 767.833,1184.5 1248.17,1184.5 1728.5,1184.5C 1728.5,1188.17 1728.5,1191.83 1728.5,1195.5C 1232.83,1195.5 737.167,1195.5 241.5,1195.5C 241.092,1176.13 241.592,1156.8 243,1137.5C 293.091,835.623 343.591,533.956 394.5,232.5 Z"/></g>
<g><path style="opacity:0.812" fill="#545456" d="M 394.5,232.5 C 403.318,231.507 412.318,231.173 421.5,231.5C 421.832,272.337 421.499,313.003 420.5,353.5C 420.5,313.167 420.5,272.833 420.5,232.5C 411.833,232.5 403.167,232.5 394.5,232.5 Z"/></g>
<g><path style="opacity:0.743" fill="#000002" d="M 1090.5,253.5 C 1045.17,253.5 999.833,253.5 954.5,253.5C 954.5,485.833 954.5,718.167 954.5,950.5C 999.833,950.5 1045.17,950.5 1090.5,950.5C 1090.5,954.167 1090.5,957.833 1090.5,961.5C 1029.83,961.5 969.167,961.5 908.5,961.5C 908.5,718.5 908.5,475.5 908.5,232.5C 969.167,232.5 1029.83,232.5 1090.5,232.5C 1090.5,239.5 1090.5,246.5 1090.5,253.5 Z"/></g>
<g><path style="opacity:0.739" fill="#010103" d="M 807.5,1115.5 C 832.133,1131.44 859.133,1140.94 888.5,1144C 961.833,1144.67 1035.17,1144.67 1108.5,1144C 1134.85,1141.77 1159.52,1134.11 1182.5,1121C 1235.25,1088.88 1265.41,1042.05 1273,980.5C 1273.5,913.501 1273.67,846.501 1273.5,779.5C 1217.66,779.832 1162,779.499 1106.5,778.5C 1109.25,772.595 1113.92,769.095 1120.5,768C 1181.5,767.333 1242.5,767.333 1303.5,768C 1311.92,769.421 1317.09,774.254 1319,782.5C 1319.17,816.5 1319.33,850.5 1319.5,884.5C 1319.64,921.523 1319.14,958.523 1318,995.5C 1304.64,1069.77 1263.47,1121.94 1194.5,1152C 1177.41,1158.69 1159.74,1163.02 1141.5,1165C 1064.14,1165.98 986.81,1165.64 909.5,1164C 870.293,1158.22 836.293,1142.06 807.5,1115.5 Z"/></g>
<g><path style="opacity:0.812" fill="#4a4a4c" d="M 1579.5,784.5 C 1578.83,904.5 1578.17,1024.5 1577.5,1144.5C 1577.33,1023.5 1577.5,902.5 1578,781.5C 1578.51,782.527 1579.01,783.527 1579.5,784.5 Z"/></g>
<g><path style="opacity:0.74" fill="#000002" d="M 1579.5,784.5 C 1594.78,821.393 1609.78,858.393 1624.5,895.5C 1624.67,980.167 1624.5,1064.83 1624,1149.5C 1622.58,1157.92 1617.75,1163.09 1609.5,1165C 1547.5,1165.67 1485.5,1165.67 1423.5,1165C 1413.29,1162.1 1408.29,1155.27 1408.5,1144.5C 1464.83,1144.5 1521.17,1144.5 1577.5,1144.5C 1578.17,1024.5 1578.83,904.5 1579.5,784.5 Z"/></g>
<g><path style="opacity:0.325" fill="#2e2e2f" d="M 802.5,1111.5 C 804.749,1112.08 806.415,1113.41 807.5,1115.5C 805.251,1114.92 803.585,1113.59 802.5,1111.5 Z"/></g>
</svg>
