<?xml version="1.0" encoding="UTF-8"?>
<!DOCTYPE svg PUBLIC "-//W3C//DTD SVG 1.1//EN" "http://www.w3.org/Graphics/SVG/1.1/DTD/svg11.dtd">
<svg xmlns="http://www.w3.org/2000/svg" version="1.1" width="2000px" height="1094px" style="shape-rendering:geometricPrecision; text-rendering:geometricPrecision; image-rendering:optimizeQuality; fill-rule:evenodd; clip-rule:evenodd" xmlns:xlink="http://www.w3.org/1999/xlink">
<g><path style="opacity:0.741" fill="#000001" d="M 411.5,914.5 C 467.664,913.501 523.998,913.168 580.5,913.5C 581.5,621 581.833,328.334 581.5,35.5C 463.833,35.5 346.167,35.5 228.5,35.5C 230.911,30.6113 234.911,27.778 240.5,27C 364.833,26.3333 489.167,26.3333 613.5,27C 620.448,27.9477 624.948,31.7811 627,38.5C 627.667,332.167 627.667,625.833 627,919.5C 624.635,925.202 620.469,928.702 614.5,930C 551.167,930.667 487.833,930.667 424.5,930C 416.357,928.024 412.024,922.857 411.5,914.5 Z"/></g>
<g><path style="opacity:0.734" fill="#000002" d="M 1081.5,329.5 C 1137.66,328.501 1194,328.168 1250.5,328.5C 1250.67,274.832 1250.5,221.166 1250,167.5C 1246.75,142.047 1236.75,119.713 1220,100.5C 1184.13,61.5276 1139.63,40.1943 1086.5,36.5C 1012.46,35.1731 938.462,35.1731 864.5,36.5C 859.586,36.3618 854.919,37.0285 850.5,38.5C 845.5,39.1667 840.5,39.8333 835.5,40.5C 855.056,33.031 875.389,28.531 896.5,27C 973.186,26.0304 1049.85,26.3637 1126.5,28C 1182.01,34.3365 1228.18,58.1698 1265,99.5C 1281.58,120.336 1291.91,144.002 1296,170.5C 1296.67,225.167 1296.67,279.833 1296,334.5C 1294.22,340.157 1290.38,343.657 1284.5,345C 1220.83,345.667 1157.17,345.667 1093.5,345C 1085.91,342.576 1081.91,337.41 1081.5,329.5 Z"/></g>
<g><path style="opacity:0.735" fill="#000002" d="M 1601.5,349.5 C 1586.9,389.643 1571.9,429.643 1556.5,469.5C 1555.83,325.167 1555.17,180.833 1554.5,36.5C 1499,35.501 1443.34,35.1677 1387.5,35.5C 1389.91,30.6113 1393.91,27.778 1399.5,27C 1462.17,26.3333 1524.83,26.3333 1587.5,27C 1594.9,28.1052 1599.4,32.2719 1601,39.5C 1601.5,142.833 1601.67,246.166 1601.5,349.5 Z"/></g>
<g><path style="opacity:0.741" fill="#010103" d="M 47.5,1050.5 C 671.333,1049.5 1295.33,1049.17 1919.5,1049.5C 1919.67,1003.5 1919.5,957.499 1919,911.5C 1847.2,799.406 1776.04,686.906 1705.5,574C 1776.94,394.504 1848.27,215.004 1919.5,35.5C 1859.17,35.5 1798.83,35.5 1738.5,35.5C 1740.85,30.4784 1744.85,27.645 1750.5,27C 1817.83,26.3333 1885.17,26.3333 1952.5,27C 1955.62,28.0587 1958.62,29.3921 1961.5,31C 1963.68,33.6935 1965.35,36.6935 1966.5,40C 1895.3,218.895 1823.97,397.728 1752.5,576.5C 1822.49,688.466 1892.99,800.132 1964,911.5C 1964.56,913.615 1965.39,915.615 1966.5,917.5C 1965.67,963.459 1965.17,1009.46 1965,1055.5C 1963.53,1060.97 1960.03,1064.47 1954.5,1066C 1322.5,1066.67 690.5,1066.67 58.5,1066C 50.7732,1063.71 47.1065,1058.55 47.5,1050.5 Z"/></g>
<g><path style="opacity:0.998" fill="#efefef" d="M 228.5,35.5 C 345.665,36.4995 462.999,36.8329 580.5,36.5C 580.5,328.833 580.5,621.167 580.5,913.5C 523.998,913.168 467.664,913.501 411.5,914.5C 406.833,914.5 402.167,914.5 397.5,914.5C 397.5,704.5 397.5,494.5 397.5,284.5C 398.465,250.52 398.799,216.52 398.5,182.5C 389.167,182.5 379.833,182.5 370.5,182.5C 320.483,426.24 269.983,669.907 219,913.5C 218.5,927.163 218.333,940.829 218.5,954.5C 714.167,954.5 1209.83,954.5 1705.5,954.5C 1705.5,951.167 1705.5,947.833 1705.5,944.5C 1705.67,934.161 1705.5,923.828 1705,913.5C 1670.98,846.791 1636.48,780.458 1601.5,714.5C 1587.03,684.232 1572.03,654.232 1556.5,624.5C 1556.22,623.711 1555.72,623.044 1555,622.5C 1554.5,719.499 1554.33,816.499 1554.5,913.5C 1498,913.168 1441.66,913.501 1385.5,914.5C 1380.83,914.5 1376.17,914.5 1371.5,914.5C 1371.5,621.5 1371.5,328.5 1371.5,35.5C 1376.83,35.5 1382.17,35.5 1387.5,35.5C 1443.34,35.1677 1499,35.501 1554.5,36.5C 1554.33,181.834 1554.5,327.167 1555,472.5C 1555.51,471.473 1556.01,470.473 1556.5,469.5C 1571.9,429.643 1586.9,389.643 1601.5,349.5C 1641.71,245.043 1682.05,140.543 1722.5,36C 1727.82,35.5006 1733.16,35.334 1738.5,35.5C 1798.83,35.5 1859.17,35.5 1919.5,35.5C 1848.27,215.004 1776.94,394.504 1705.5,574C 1776.04,686.906 1847.2,799.406 1919,911.5C 1919.5,957.499 1919.67,1003.5 1919.5,1049.5C 1295.33,1049.17 671.333,1049.5 47.5,1050.5C 42.8333,1050.5 38.1667,1050.5 33.5,1050.5C 33.8281,1004.79 33.4948,959.124 32.5,913.5C 92.6296,620.852 152.63,328.185 212.5,35.5C 217.833,35.5 223.167,35.5 228.5,35.5 Z"/></g>
<g><path style="opacity:0.937" fill="#b4b4b4" d="M 228.5,35.5 C 346.167,35.5 463.833,35.5 581.5,35.5C 581.833,328.334 581.5,621 580.5,913.5C 580.5,621.167 580.5,328.833 580.5,36.5C 462.999,36.8329 345.665,36.4995 228.5,35.5 Z"/></g>
<g><path style="opacity:0.976" fill="#9d9d9e" d="M 864.5,36.5 C 860.081,37.9715 855.414,38.6382 850.5,38.5C 854.919,37.0285 859.586,36.3618 864.5,36.5 Z"/></g>
<g><path style="opacity:0.999" fill="#efefef" d="M 1081.5,329.5 C 1076.83,329.5 1072.17,329.5 1067.5,329.5C 1067.5,286.5 1067.5,243.5 1067.5,200.5C 1067.5,194.5 1067.5,188.5 1067.5,182.5C 1006.83,182.5 946.167,182.5 885.5,182.5C 885.5,377.167 885.5,571.833 885.5,766.5C 946.167,766.5 1006.83,766.5 1067.5,766.5C 1067.5,763.5 1067.5,760.5 1067.5,757.5C 1067.5,711.5 1067.5,665.5 1067.5,619.5C 1072.83,619.5 1078.17,619.5 1083.5,619.5C 1139,620.499 1194.66,620.832 1250.5,620.5C 1250.67,673.834 1250.5,727.168 1250,780.5C 1245.36,814.94 1229.86,843.44 1203.5,866C 1169.38,894.381 1130.05,910.048 1085.5,913C 1012.17,913.667 938.833,913.667 865.5,913C 836.925,910.859 809.925,903.359 784.5,890.5C 784.027,889.094 783.027,888.427 781.5,888.5C 749.658,871.824 726.158,847.157 711,814.5C 706.767,804.233 704.1,793.567 703,782.5C 702.333,577.5 702.333,372.5 703,167.5C 707.554,135.556 721.721,108.723 745.5,87C 771.421,63.8712 801.421,48.3712 835.5,40.5C 840.5,39.8333 845.5,39.1667 850.5,38.5C 855.414,38.6382 860.081,37.9715 864.5,36.5C 938.462,35.1731 1012.46,35.1731 1086.5,36.5C 1139.63,40.1943 1184.13,61.5276 1220,100.5C 1236.75,119.713 1246.75,142.047 1250,167.5C 1250.5,221.166 1250.67,274.832 1250.5,328.5C 1194,328.168 1137.66,328.501 1081.5,329.5 Z"/></g>
<g><path style="opacity:0.812" fill="#4a4a4c" d="M 1554.5,36.5 C 1555.17,180.833 1555.83,325.167 1556.5,469.5C 1556.01,470.473 1555.51,471.473 1555,472.5C 1554.5,327.167 1554.33,181.834 1554.5,36.5 Z"/></g>
<g><path style="opacity:0.721" fill="#020204" d="M 397.5,284.5 C 353.294,495.692 309.127,707.025 265,918.5C 264.5,927.16 264.334,935.827 264.5,944.5C 744.833,944.5 1225.17,944.5 1705.5,944.5C 1705.5,947.833 1705.5,951.167 1705.5,954.5C 1209.83,954.5 714.167,954.5 218.5,954.5C 218.333,940.829 218.5,927.163 219,913.5C 269.983,669.907 320.483,426.24 370.5,182.5C 379.833,182.5 389.167,182.5 398.5,182.5C 398.799,216.52 398.465,250.52 397.5,284.5 Z"/></g>
<g><path style="opacity:0.738" fill="#000002" d="M 1067.5,200.5 C 1022.17,200.5 976.833,200.5 931.5,200.5C 931.5,386.167 931.5,571.833 931.5,757.5C 976.833,757.5 1022.17,757.5 1067.5,757.5C 1067.5,760.5 1067.5,763.5 1067.5,766.5C 1006.83,766.5 946.167,766.5 885.5,766.5C 885.5,571.833 885.5,377.167 885.5,182.5C 946.167,182.5 1006.83,182.5 1067.5,182.5C 1067.5,188.5 1067.5,194.5 1067.5,200.5 Z"/></g>
<g><path style="opacity:0.735" fill="#000002" d="M 784.5,890.5 C 809.925,903.359 836.925,910.859 865.5,913C 938.833,913.667 1012.17,913.667 1085.5,913C 1130.05,910.048 1169.38,894.381 1203.5,866C 1229.86,843.44 1245.36,814.94 1250,780.5C 1250.5,727.168 1250.67,673.834 1250.5,620.5C 1194.66,620.832 1139,620.499 1083.5,619.5C 1086.33,615.244 1090.33,612.744 1095.5,612C 1158.17,611.333 1220.83,611.333 1283.5,612C 1289.5,613.336 1293.67,616.836 1296,622.5C 1296.17,650 1296.33,677.5 1296.5,705C 1313.28,819.205 1266.61,892.205 1156.5,924C 1145.3,926.773 1133.97,928.773 1122.5,930C 1042.15,930.974 961.812,930.641 881.5,929C 845.775,924.05 813.441,911.217 784.5,890.5 Z"/></g>
<g><path style="opacity:0.812" fill="#4a4a4c" d="M 1556.5,624.5 C 1555.83,720.833 1555.17,817.167 1554.5,913.5C 1554.33,816.499 1554.5,719.499 1555,622.5C 1555.72,623.044 1556.22,623.711 1556.5,624.5 Z"/></g>
<g><path style="opacity:0.738" fill="#000002" d="M 1556.5,624.5 C 1572.03,654.232 1587.03,684.232 1601.5,714.5C 1601.67,782.501 1601.5,850.501 1601,918.5C 1599.04,924.731 1594.87,928.564 1588.5,930C 1525.17,930.667 1461.83,930.667 1398.5,930C 1390.33,927.998 1385.99,922.832 1385.5,914.5C 1441.66,913.501 1498,913.168 1554.5,913.5C 1555.17,817.167 1555.83,720.833 1556.5,624.5 Z"/></g>
<g><path style="opacity:0.237" fill="#171717" d="M 781.5,888.5 C 783.027,888.427 784.027,889.094 784.5,890.5C 782.973,890.573 781.973,889.906 781.5,888.5 Z"/></g>
</svg>
